<?xml version="1.0" encoding="utf-8"?>
<!-- Generator: Adobe Illustrator 23.0.3, SVG Export Plug-In . SVG Version: 6.00 Build 0)  -->
<svg version="1.1" id="Layer_1" xmlns:svg="http://www.w3.org/2000/svg"
	 xmlns="http://www.w3.org/2000/svg" xmlns:xlink="http://www.w3.org/1999/xlink" x="0px" y="0px" viewBox="0 0 187.4 39.1"
	 style="enable-background:new 0 0 187.4 39.1;" xml:space="preserve">
<style type="text/css">
	.st0{fill:#F7931A;}
	.st1{fill:#FFFFFF;}
	.st2{fill:#4D4D4D;}
</style>
<path class="st0" d="M38.5,24.3c-2.6,10.5-13.2,16.9-23.7,14.2C4.3,35.9-2,25.3,0.6,14.8C3.2,4.4,13.8-2,24.3,0.6
	C34.8,3.2,41.1,13.8,38.5,24.3z"/>
<path class="st1" d="M28.2,16.8c0.4-2.6-1.6-4-4.3-4.9l0.9-3.5l-2.1-0.5l-0.9,3.4c-0.6-0.1-1.1-0.3-1.7-0.4l0.9-3.5l-2.1-0.5
	l-0.9,3.5c-0.5-0.1-0.9-0.2-1.4-0.3l0,0l-3-0.7L13,11.6c0,0,1.6,0.4,1.6,0.4c0.9,0.2,1,0.8,1,1.2l-1,4c0.1,0,0.1,0,0.2,0.1
	c-0.1,0-0.1,0-0.2-0.1l-1.4,5.6c-0.1,0.3-0.4,0.7-1,0.5c0,0-1.6-0.4-1.6-0.4l-1.1,2.5l2.8,0.7c0.5,0.1,1,0.3,1.5,0.4L13,30.1
	l2.1,0.5l0.9-3.5c0.6,0.2,1.2,0.3,1.7,0.4l-0.9,3.5l2.1,0.5l0.9-3.6c3.7,0.7,6.4,0.4,7.6-2.9c0.9-2.7,0-4.2-2-5.2
	C26.8,19.6,27.9,18.7,28.2,16.8L28.2,16.8z M23.3,23.7c-0.7,2.7-5.2,1.2-6.6,0.9l1.2-4.7C19.3,20.2,24,20.9,23.3,23.7z M23.9,16.7
	c-0.6,2.4-4.3,1.2-5.6,0.9l1.1-4.3C20.7,13.6,24.6,14.2,23.9,16.7z"/>
<g>
	<path class="st2" d="M57.3,11.8c1.6,0,3,0.3,4.1,0.8c1.2,0.6,2.1,1.3,2.9,2.3c0.8,1,1.3,2.1,1.7,3.4c0.4,1.3,0.5,2.7,0.5,4.2
		c0,2.3-0.4,4.4-1.3,6.5c-0.8,2-2,3.8-3.4,5.3c-1.5,1.5-3.2,2.7-5.1,3.6c-2,0.9-4.1,1.3-6.4,1.3c-0.3,0-0.8,0-1.6,0
		c-0.7,0-1.6-0.1-2.5-0.2c-1-0.1-2-0.3-3-0.6C42,38,41,37.7,40,37.2l8.6-36L56.3,0l-3.1,12.8c0.7-0.3,1.3-0.5,2-0.7
		C55.9,11.9,56.6,11.8,57.3,11.8L57.3,11.8z M50.9,33c1.2,0,2.2-0.3,3.3-0.8c1-0.6,1.9-1.3,2.7-2.3c0.7-0.9,1.3-2,1.8-3.2
		c0.4-1.2,0.6-2.4,0.6-3.7c0-1.6-0.3-2.8-0.8-3.7c-0.5-0.9-1.5-1.3-2.9-1.3c-0.5,0-1.1,0.1-1.8,0.2c-0.7,0.2-1.4,0.5-2,1l-3.3,13.6
		c0.2,0,0.4,0.1,0.5,0.1c0.1,0,0.3,0.1,0.5,0.1c0.2,0,0.4,0,0.6,0C50.2,33,50.5,33,50.9,33L50.9,33z"/>
	<path class="st2" d="M74.5,38.4h-7.3l6.2-26h7.4L74.5,38.4z M78.1,9.2c-1,0-2-0.3-2.8-0.9C74.5,7.7,74,6.8,74,5.5
		c0-0.7,0.1-1.3,0.4-2c0.3-0.6,0.7-1.1,1.1-1.6c0.5-0.4,1-0.8,1.6-1.1c0.6-0.3,1.3-0.4,2-0.4c1,0,1.9,0.3,2.8,0.9
		C82.7,2,83.2,3,83.2,4.2c0,0.7-0.1,1.3-0.4,2c-0.3,0.6-0.6,1.1-1.1,1.6c-0.5,0.4-1,0.8-1.6,1.1C79.4,9.1,78.7,9.2,78.1,9.2
		L78.1,9.2z"/>
	<path class="st2" d="M87.1,5.9l7.7-1.2l-1.9,7.7h8.2l-1.5,6h-8.2l-2.2,9.1C89.1,28.3,89,29,89,29.7c0,0.7,0,1.2,0.2,1.7
		c0.2,0.5,0.6,0.8,1.1,1.1c0.5,0.3,1.2,0.4,2.2,0.4c0.8,0,1.6-0.1,2.3-0.2c0.7-0.1,1.5-0.4,2.2-0.6l0.5,5.6c-1,0.4-2.1,0.7-3.2,0.9
		c-1.2,0.3-2.5,0.4-4.1,0.4c-2.3,0-4-0.3-5.3-1c-1.3-0.7-2.1-1.6-2.7-2.8c-0.5-1.2-0.8-2.5-0.7-4c0.1-1.5,0.3-3.1,0.7-4.8L87.1,5.9z
		"/>
	<path class="st2" d="M100.8,28c0-2.2,0.4-4.4,1.1-6.3c0.7-2,1.8-3.7,3.1-5.2c1.3-1.5,3-2.7,4.9-3.5c1.9-0.9,4.1-1.3,6.5-1.3
		c1.5,0,2.8,0.1,4,0.4c1.2,0.3,2.2,0.7,3.2,1.1l-2.5,5.7c-0.7-0.3-1.3-0.5-2.1-0.7c-0.7-0.2-1.6-0.3-2.6-0.3c-2.4,0-4.4,0.8-5.8,2.5
		c-1.4,1.7-2.2,3.9-2.2,6.8c0,1.7,0.4,3,1.1,4.1c0.7,1,2.1,1.6,4,1.6c1,0,1.9-0.1,2.8-0.3c0.9-0.2,1.7-0.4,2.4-0.7l0.5,5.9
		c-0.9,0.4-1.9,0.7-3.1,1c-1.1,0.3-2.5,0.4-4,0.4c-2,0-3.8-0.3-5.2-0.9c-1.4-0.6-2.6-1.4-3.5-2.4c-0.9-1-1.6-2.2-2-3.5
		C101,30.9,100.8,29.5,100.8,28L100.8,28z"/>
	<path class="st2" d="M133.4,39.1c-1.7,0-3.3-0.3-4.6-0.8c-1.3-0.5-2.3-1.3-3.2-2.2c-0.8-1-1.5-2.1-1.9-3.4
		c-0.4-1.3-0.6-2.7-0.6-4.3c0-2,0.3-4,1-5.9c0.6-2,1.6-3.8,2.8-5.3c1.2-1.6,2.8-2.9,4.6-3.9c1.8-1,3.9-1.5,6.2-1.5
		c1.7,0,3.2,0.3,4.5,0.8c1.3,0.5,2.4,1.3,3.2,2.2c0.8,1,1.5,2.1,1.9,3.4c0.4,1.3,0.6,2.7,0.6,4.3c0,2-0.3,4-0.9,5.9
		c-0.6,2-1.6,3.8-2.8,5.3c-1.2,1.6-2.7,2.9-4.6,3.9C137.9,38.6,135.8,39.1,133.4,39.1L133.4,39.1z M137,17.9c-1.1,0-2,0.3-2.9,0.9
		c-0.8,0.6-1.5,1.4-2.1,2.4c-0.6,1-1,2-1.3,3.1c-0.3,1.1-0.4,2.2-0.4,3.2c0,1.7,0.3,2.9,0.8,3.9c0.5,0.9,1.5,1.4,2.9,1.4
		c1.1,0,2-0.3,2.9-0.9c0.8-0.6,1.5-1.4,2.1-2.4c0.6-1,1-2,1.3-3.1c0.3-1.1,0.4-2.2,0.4-3.2c0-1.6-0.3-2.9-0.8-3.9
		C139.4,18.4,138.4,17.9,137,17.9z"/>
	<path class="st2" d="M156,38.4h-7.3l6.2-26h7.4L156,38.4z M159.6,9.2c-1,0-1.9-0.3-2.8-0.9c-0.8-0.6-1.2-1.5-1.2-2.8
		c0-0.7,0.1-1.3,0.4-2c0.3-0.6,0.7-1.1,1.1-1.6c0.5-0.4,1-0.8,1.6-1.1c0.6-0.3,1.3-0.4,2-0.4c1,0,2,0.3,2.8,0.9
		c0.8,0.6,1.2,1.5,1.2,2.8c0,0.7-0.1,1.3-0.4,2s-0.6,1.1-1.1,1.6c-0.5,0.4-1,0.8-1.6,1.1C160.9,9.1,160.3,9.2,159.6,9.2L159.6,9.2z"
		/>
	<path class="st2" d="M167.5,13.6c0.6-0.2,1.2-0.4,1.9-0.6c0.7-0.2,1.4-0.4,2.3-0.6c0.8-0.2,1.8-0.3,2.8-0.4c1-0.1,2.2-0.2,3.5-0.2
		c3.9,0,6.5,1.1,8,3.4c1.5,2.2,1.7,5.3,0.8,9.2l-3.4,14.1H176l3.3-13.8c0.2-0.9,0.4-1.7,0.5-2.5c0.1-0.8,0.1-1.5,0-2.1
		c-0.1-0.6-0.4-1.1-0.9-1.5c-0.5-0.4-1.2-0.6-2.2-0.6c-1,0-1.9,0.1-2.9,0.3l-4.8,20.1h-7.4C161.5,38.4,167.5,13.6,167.5,13.6z"/>
</g>
</svg>
