<?xml version="1.0" standalone="no"?>
<!DOCTYPE svg PUBLIC "-//W3C//DTD SVG 20010904//EN"
 "http://www.w3.org/TR/2001/REC-SVG-20010904/DTD/svg10.dtd">
<svg version="1.0" xmlns="http://www.w3.org/2000/svg"
 width="200.000000pt" height="200.000000pt" viewBox="0 0 200.000000 200.000000"
 preserveAspectRatio="xMidYMid meet">

<g transform="translate(0.000000,200.000000) scale(0.100000,-0.100000)"
fill="#000000" stroke="none">
<path d="M295 1166 c-39 -17 -70 -52 -90 -98 -41 -100 14 -213 120 -243 175
-51 306 155 188 296 -15 17 -42 38 -60 45 -41 18 -119 17 -158 0z m198 -67
c37 -42 45 -59 27 -59 -5 0 -16 13 -25 30 -8 16 -24 34 -35 40 -17 9 -20 8
-20 -9 0 -11 -4 -23 -10 -26 -20 -12 -9 -25 20 -25 21 0 30 -5 30 -16 0 -12 7
-15 25 -12 30 6 34 -5 23 -57 -17 -77 -101 -134 -176 -120 -68 12 -151 100
-123 128 9 9 13 6 17 -11 4 -12 9 -22 13 -22 15 0 31 25 31 47 0 14 6 23 15
23 19 0 19 7 0 26 -24 24 -59 14 -63 -18 -2 -16 -8 -28 -14 -28 -7 0 -8 13 -5
35 21 129 179 172 270 74z"/>
<path d="M347 1134 c-13 -13 -7 -44 8 -44 8 0 15 -5 15 -11 0 -6 10 -9 23 -7
17 2 22 10 22 33 0 26 -4 30 -30 33 -17 2 -34 0 -38 -4z"/>
<path d="M280 1098 c-21 -20 -22 -23 -7 -26 18 -4 47 19 47 37 0 17 -14 13
-40 -11z"/>
<path d="M320 1060 c0 -11 7 -20 15 -20 8 0 15 9 15 20 0 11 -7 20 -15 20 -8
0 -15 -9 -15 -20z"/>
<path d="M370 1040 c0 -5 -7 -10 -15 -10 -8 0 -15 -9 -15 -20 0 -11 -7 -20
-15 -20 -8 0 -15 -6 -15 -14 0 -11 10 -13 40 -9 36 5 40 4 40 -16 0 -27 27
-25 44 2 9 14 7 20 -6 28 -11 6 -18 22 -18 39 0 23 -5 30 -20 30 -11 0 -20 -4
-20 -10z"/>
<path d="M430 1015 c0 -8 7 -15 15 -15 8 0 15 7 15 15 0 8 -7 15 -15 15 -8 0
-15 -7 -15 -15z"/>
<path d="M466 978 c-20 -28 -20 -42 -1 -58 21 -17 34 -4 45 44 7 31 5 36 -10
36 -11 0 -26 -10 -34 -22z"/>
<path d="M281 936 c-18 -22 -9 -40 32 -59 44 -21 89 -22 128 -1 29 15 30 16
14 34 -15 16 -19 17 -43 4 -41 -21 -74 -17 -97 12 -19 23 -22 24 -34 10z"/>
<path d="M340 935 c0 -8 7 -15 15 -15 8 0 15 7 15 15 0 8 -7 15 -15 15 -8 0
-15 -7 -15 -15z"/>
<path d="M970 1095 c0 -60 3 -75 15 -75 12 0 15 15 15 75 0 60 -3 75 -15 75
-12 0 -15 -15 -15 -75z"/>
<path d="M660 1090 l0 -70 50 0 c41 0 56 5 75 25 30 30 31 54 4 89 -18 22 -28
26 -75 26 l-54 0 0 -70z m102 33 c10 -9 18 -22 18 -30 0 -22 -38 -53 -65 -53
-23 0 -25 3 -25 50 0 48 1 50 27 50 14 0 35 -7 45 -17z"/>
<path d="M846 1114 c-23 -23 -20 -71 4 -84 25 -14 72 -9 77 7 3 7 -8 10 -28
10 -18 -1 -34 4 -36 11 -3 8 8 12 36 12 34 0 41 3 41 20 0 37 -65 54 -94 24z
m62 -21 c2 -8 -6 -13 -22 -13 -25 0 -33 10 -19 24 10 10 36 3 41 -11z"/>
<path d="M1048 1119 c-47 -26 -3 -106 50 -92 18 4 23 2 20 -8 -3 -9 -19 -14
-41 -14 -23 0 -37 -5 -37 -12 0 -9 16 -13 45 -13 54 0 65 16 65 93 l0 54 -42
1 c-24 1 -51 -4 -60 -9z m60 -18 c21 -13 10 -46 -16 -49 -24 -4 -38 18 -28 43
6 17 24 19 44 6z"/>
<path d="M1196 1114 c-23 -22 -20 -71 3 -84 43 -23 101 1 101 41 0 49 -70 78
-104 43z m68 -26 c13 -22 -14 -54 -38 -45 -16 6 -22 48 -9 61 11 11 35 3 47
-16z"/>
</g>
</svg>
