<?xml version="1.0" encoding="utf-8"?>
<!-- Generator: Adobe Illustrator 23.0.3, SVG Export Plug-In . SVG Version: 6.00 Build 0)  -->
<svg version="1.1" id="Layer_1" xmlns="http://www.w3.org/2000/svg" xmlns:xlink="http://www.w3.org/1999/xlink" x="0px" y="0px"
	 viewBox="0 0 456.9 124.4" style="enable-background:new 0 0 456.9 124.4;" xml:space="preserve">
<style type="text/css">
	.st0{fill:#26A17B;}
	.st1{fill:#FFFFFF;}
	.st2{fill:#5B5A5D;}
</style>
<circle class="st0" cx="62.2" cy="62.2" r="62.2"/>
<g>
	<path class="st1" d="M68.8,67.9L68.8,67.9c-0.4,0-2.7,0.2-7.6,0.2c-4,0-6.7-0.1-7.7-0.2v0C38.4,67.3,27,64.6,27,61.5
		c0-3.2,11.3-5.8,26.5-6.5v10.3c1,0.1,3.8,0.2,7.8,0.2c4.7,0,7.1-0.2,7.5-0.2V55c15.2,0.7,26.5,3.3,26.5,6.5
		C95.3,64.6,84,67.3,68.8,67.9 M68.8,53.9v-9.2H90V30.6H32.4v14.1h21.2v9.2c-17.2,0.8-30.1,4.2-30.1,8.3s12.9,7.5,30.1,8.3v29.6
		h15.3V70.5c17.2-0.8,30.1-4.2,30.1-8.3C98.9,58.1,86,54.7,68.8,53.9"/>
</g>
<path class="st2" d="M177.2,34.4v14.9h14.5v11.2h-14.6v22.7c0,5,2.8,7.5,6.8,7.5c2,0,4.4-0.6,6.3-1.6l3.6,11.1
	c-3.7,1.5-6.8,2.1-10.8,2.2c-11.4,0.4-18.9-6.1-18.9-19.2V60.6h-9.8V49.4h9.8V35.8L177.2,34.4z M427.6,48.7l1,6.1
	c4.1-6.5,9.5-7.5,14.8-7.5c5.4,0,10.7,2.1,13.5,5L451,63.6c-2.7-2.2-5.1-3.4-9.4-3.4c-6.8,0-13.1,3.6-13.1,13.3v27.8h-13V48.7
	L427.6,48.7z M395.7,68.9c-0.9-6.8-6.2-10.3-13.7-10.3c-7,0-12.8,3.4-14.7,10.3H395.7z M367.1,79.6c0.9,6.5,6.5,11.2,15.7,11.2
	c4.8,0,11.1-1.8,14.1-4.9l8.3,8.2c-5.5,5.8-14.6,8.5-22.6,8.5c-18.1,0-28.9-11.2-28.9-28.1c0-16,10.9-27.5,28-27.5
	c17.6,0,28.6,10.9,26.6,32.5H367.1z M309.6,26.6v29.2c4.7-6.1,10.5-7.9,16.4-7.9c14.9,0,21.6,10.1,21.6,25.6v27.8h-13V73.7
	c0-9.6-5-13.7-12-13.7c-7.7,0-13,6.5-13,14.4v26.9h-13V26.6L309.6,26.6z M275.1,33.8v14.9h14.5V60H275v22.7c0,5,2.8,7.5,6.8,7.5
	c2,0,4.4-0.6,6.3-1.6l3.6,11.1c-3.7,1.5-6.8,2.1-10.8,2.2c-11.4,0.4-18.9-6.1-18.9-19.2V60h-9.8V48.8h9.8V35.2L275.1,33.8z
	 M239.1,68.9c-0.9-6.8-6.2-10.3-13.7-10.3c-7,0-12.8,3.4-14.7,10.3H239.1z M210.5,79.6c0.9,6.5,6.5,11.2,15.7,11.2
	c4.8,0,11.1-1.8,14.1-4.9l8.3,8.2c-5.6,5.8-14.6,8.5-22.6,8.5c-18.1,0-28.9-11.2-28.9-28.1c0-16,10.9-27.5,28-27.5
	c17.6,0,28.6,10.9,26.6,32.5H210.5z"/>
</svg>
