<?xml version="1.0" encoding="utf-8"?>
<!-- Generator: Adobe Illustrator 25.4.1, SVG Export Plug-In . SVG Version: 6.00 Build 0)  -->
<svg version="1.0" id="Layer_1" xmlns="http://www.w3.org/2000/svg" xmlns:xlink="http://www.w3.org/1999/xlink" x="0px" y="0px"
	 viewBox="0 0 123.333 23.749" enable-background="new 0 0 123.333 23.749" xml:space="preserve">
<desc>Created with Sketch.</desc>
<g id="Symbols">
	<g id="Top-bar_x2F_Desktop" transform="translate(-160.000000, -11.000000)">
		<g id="Top-bar">
			<g id="Logo_x2F_Horizontal_x2F_Blue" transform="translate(160.000000, 11.000000)">
				<g id="Logo">
					<g id="logotype" transform="translate(27.147929, 5.882353)">
						<path id="Fill-1" fill-rule="evenodd" clip-rule="evenodd" fill="#1E3F6F" d="M4.869,11.483c-2.713,0-4.717-2.129-4.717-4.745
							s2.005-4.797,4.734-4.797c1.729,0,2.8,0.641,3.647,1.576L7.237,4.92c-0.64-0.675-1.313-1.143-2.368-1.143
							c-1.521,0-2.627,1.316-2.627,2.926c0,1.645,1.123,2.961,2.73,2.961c0.985,0,1.711-0.468,2.368-1.143l1.261,1.246
							C7.703,10.772,6.649,11.483,4.869,11.483"/>
						<path id="Fill-3" fill-rule="evenodd" clip-rule="evenodd" fill="#1E3F6F" d="M12.569,11.483h-2.09V1.959h2.09v2.234
							c0.57-1.368,1.624-2.304,3.231-2.234v2.217H15.68c-1.831,0-3.11,1.195-3.11,3.619V11.483z"/>
						<polygon id="Fill-5" fill-rule="evenodd" clip-rule="evenodd" fill="#1E3F6F" points="26.746,1.941 22.125,14.047 
							20.006,14.047 21.015,11.486 17.057,1.941 19.286,1.941 21.987,8.991 24.58,1.941 						"/>
						<path id="Fill-7" fill-rule="evenodd" clip-rule="evenodd" fill="#1E3F6F" d="M32.914,3.759c-1.417,0-2.661,1.16-2.661,2.944
							s1.244,2.943,2.661,2.943c1.434,0,2.609-1.125,2.609-2.943C35.523,4.902,34.331,3.759,32.914,3.759 M33.398,11.465
							c-1.503,0-2.454-0.762-3.093-1.61v4.191h-2.09V1.941h2.09v1.714c0.674-0.952,1.625-1.714,3.093-1.714
							c2.16,0,4.251,1.714,4.251,4.763C37.649,9.751,35.575,11.465,33.398,11.465"/>
						<path id="Fill-9" fill-rule="evenodd" clip-rule="evenodd" fill="#1E3F6F" d="M42.232,3.933v4.484
							c0,0.813,0.412,1.142,1.123,1.142h0.82v1.871h-1.43c-1.522-0.004-2.603-0.682-2.603-2.685V3.933h-1.161V2.134h1.161v-2.512
							h2.09v2.512h1.943v1.799H42.232z"/>
						<path id="Fill-11" fill-rule="evenodd" clip-rule="evenodd" fill="#1E3F6F" d="M50.789,3.777
							c-1.677,0-2.748,1.316-2.748,2.926c0,1.628,1.158,2.961,2.782,2.961c1.693,0,2.765-1.315,2.765-2.926
							C53.588,5.11,52.43,3.777,50.789,3.777 M50.789,11.482c-2.782,0-4.839-2.129-4.839-4.745c0-2.632,2.074-4.797,4.873-4.797
							c2.799,0,4.856,2.13,4.856,4.763C55.679,9.319,53.605,11.482,50.789,11.482"/>
						<path id="Fill-17" fill-rule="evenodd" clip-rule="evenodd" fill="#1E3F6F" d="M59.506,9.561v1.056
							c0,0.045-0.022,0.085-0.061,0.106l-0.912,0.528c-0.038,0.022-0.085,0.022-0.121,0l-0.914-0.528
							c-0.037-0.021-0.061-0.061-0.061-0.106V9.561c0-0.043,0.024-0.083,0.061-0.106l0.914-0.528c0.036-0.022,0.083-0.022,0.121,0
							l0.912,0.528C59.484,9.478,59.506,9.518,59.506,9.561"/>
						<path id="Fill-13" fill-rule="evenodd" clip-rule="evenodd" fill="#1E3F6F" d="M75.669,3.777
							c-1.677,0-2.748,1.316-2.748,2.926c0,1.628,1.158,2.961,2.782,2.961c1.693,0,2.764-1.315,2.764-2.926
							C78.468,5.11,77.311,3.777,75.669,3.777 M75.669,11.482c-2.782,0-4.839-2.129-4.839-4.745c0-2.632,2.074-4.797,4.873-4.797
							c2.799,0,4.856,2.13,4.856,4.763C80.56,9.319,78.485,11.482,75.669,11.482"/>
						<path id="Fill-19" fill-rule="evenodd" clip-rule="evenodd" fill="#1E3F6F" d="M65.872,11.472
							c-2.713-0.052-4.676-2.221-4.625-4.835c0.05-2.614,2.096-4.757,4.825-4.704c1.728,0.033,2.787,0.694,3.616,1.646l-1.323,1.377
							c-0.626-0.688-1.291-1.168-2.345-1.188c-1.52-0.029-2.652,1.265-2.683,2.876c-0.032,1.645,1.067,2.982,2.673,3.013
							c0.985,0.019,1.72-0.435,2.389-1.097l1.238,1.271C68.72,10.816,67.652,11.506,65.872,11.472"/>
						<path id="Fill-15" fill-rule="evenodd" clip-rule="evenodd" fill="#1E3F6F" d="M92.988,1.941c1.988,0,3.197,1.264,3.197,3.498
							v6.044h-2.09V6.08c0-1.454-0.674-2.234-1.849-2.234c-1.14,0-1.953,0.796-1.953,2.268v5.368h-2.09V6.062
							c0-1.42-0.692-2.216-1.85-2.216c-1.157,0-1.952,0.866-1.952,2.286v5.351h-2.091V1.941H84.4v1.576
							c0.588-0.814,1.383-1.576,2.782-1.576c1.313,0,2.229,0.641,2.713,1.61C90.638,2.582,91.605,1.941,92.988,1.941"/>
					</g>
					<path id="Full-logo" fill-rule="evenodd" clip-rule="evenodd" fill="#1E3F6F" d="M14.303,19.101h-1.455l-1.743-1.608v-0.818
						l1.807-1.738v-2.742l2.365-1.542l2.698,2.035L14.303,19.101z M8.268,14.771l0.269-2.584L7.656,9.882h5.229l-0.861,2.304
						l0.249,2.574l-2.012,0.01H8.268z M9.455,17.493L7.712,19.12H6.238l-3.69-6.431l2.707-2.016l2.393,1.524v2.742l1.808,1.738
						V17.493z M6.21,5.134h8.075l0.974,4.126H5.273L6.21,5.134z M10.261,0L0,5.937v11.874l10.261,5.938l10.262-5.938V5.937L10.261,0
						z"/>
					<g id="Left-side-gradient" transform="translate(0.000000, 0.218897)">
						<g id="Clip-29">
							
								<linearGradient id="path-2_00000176761763682351580460000012929943364242097817_" gradientUnits="userSpaceOnUse" x1="-322.6112" y1="297.3209" x2="-322.6112" y2="296.8209" gradientTransform="matrix(10.2612 0 0 -23.7485 3315.5037 7060.7144)">
								<stop  offset="0" style="stop-color:#021E3F"/>
								<stop  offset="0" style="stop-color:#022045"/>
								<stop  offset="1" style="stop-color:#002A67"/>
							</linearGradient>
							
								<path id="path-2_00000162349468314243540640000013272180240679872131_" fill-rule="evenodd" clip-rule="evenodd" fill="url(#path-2_00000176761763682351580460000012929943364242097817_)" d="
								M0,5.718l10.261-5.937v5.134H6.21L5.273,9.041h4.988v0.623H7.656l0.88,2.304l-0.269,2.584h1.993v8.978L0,17.592V5.718z
								 M9.455,17.274v-0.818l-1.808-1.738v-2.742l-2.393-1.524L2.548,12.47l3.69,6.431h1.474L9.455,17.274z"/>
						</g>
					</g>
					<g id="Right-side-gradient" transform="translate(9.538462, 0.218897)">
						<g id="Clip-26">
							
								<linearGradient id="path-5_00000027572190092946644700000013422792324684405672_" gradientUnits="userSpaceOnUse" x1="-332.1522" y1="296.3483" x2="-332.1522" y2="296.8209" gradientTransform="matrix(10.2619 0 0 -23.7485 3414.3721 7060.7144)">
								<stop  offset="0" style="stop-color:#021E3F"/>
								<stop  offset="1" style="stop-color:#002A67"/>
							</linearGradient>
							
								<path id="path-5_00000025403363325579205890000014141998085699845275_" fill-rule="evenodd" clip-rule="evenodd" fill="url(#path-5_00000027572190092946644700000013422792324684405672_)" d="
								M4.765,18.883l3.673-6.413l-2.699-2.035l-2.364,1.542v2.742l-1.808,1.738v0.818l1.743,1.608H4.765z M0.723-0.219
								l10.262,5.937v11.874L0.723,23.53v-8.978l2.013-0.01l-0.25-2.574l0.862-2.304H0.723V9.041h4.998L4.747,4.915H0.723V-0.219z"
								/>
						</g>
					</g>
				</g>
			</g>
		</g>
	</g>
</g>
</svg>
